# xmcd
#
# Track frame offsets:
#	150
#	18857
#	35115
#	52175
#	67954
#	87714
#	105642
#	126795
#	142521
#	159012
#	181102
#	196511
#	213977
#	231627
#	248352
#	267882
#	283147
#	299019
#
# Disc length: 4254 seconds
#
# Revision: 1
# Processed by: cddbd v1.5.2PL0 Copyright (c) Steve Scherf et al.
# Submitted via: audiograbber 1.83.01
#
DISCID=fe109c12
DTITLE=Train - Save Me, San Francisco (Golden Gate Edition)
DYEAR=2010
DGENRE=Alternative Rock
TTITLE0=Save me, San Francisco
TTITLE1=Hey, soul sister
TTITLE2=I got you
TTITLE3=Parachute
TTITLE4=This ain't goodbye
TTITLE5=If it's love
TTITLE6=You already know
TTITLE7=Words
TTITLE8=Brick by brick
TTITLE9=Breakfast in bed
TTITLE10=Marry me
TTITLE11=Shake up christmas
TTITLE12=Half moon bay
TTITLE13=The finish line
TTITLE14=Umbrella
TTITLE15=Parachute  (alternate version)
TTITLE16=Marry me  (first dance mix)
TTITLE17=Drops of jupiter  (live) (bonus track)
EXTD=
EXTT0=
EXTT1=
EXTT2=
EXTT3=
EXTT4=
EXTT5=
EXTT6=
EXTT7=
EXTT8=
EXTT9=
EXTT10=
EXTT11=
EXTT12=
EXTT13=
EXTT14=
EXTT15=
EXTT16=
EXTT17=
PLAYORDER=
